<svg xmlns="http://www.w3.org/2000/svg" viewBox="0 0 104.5 81"><defs><style>.cls-1{fill:#0f0805;}.cls-2{fill:#bdccd4;}</style></defs><title>briefcase-logo</title><g id="Layer_2" data-name="Layer 2"><g id="page4"><g id="logo_case" data-name="logo case"><path class="cls-1" d="M.05,80.89h0L0,80.84.11,15.9a.05.05,0,0,1,.05-.05H104.34v.05l-.11,64.94a.05.05,0,0,1-.05.05Z"/><path class="cls-1" d="M104.34,15.9l-.11,64.94H.11L.21,15.9H104.34m0-.11H.21a.11.11,0,0,0-.11.11L0,80.84c0,.05,0,.05.05.11s.05.05.11.05H104.29a.11.11,0,0,0,.11-.11L104.5,16c0-.05,0-.05-.05-.11a.16.16,0,0,0-.11-.05Zm0,.27Z"/><path class="cls-1" d="M65.59,3.22V15.9H38.81V3.22H65.59m0-3.22H38.81a3.2,3.2,0,0,0-3.16,3.22V15.9a3,3,0,0,0,.95,2.26,3.23,3.23,0,0,0,2.21,1H65.59a3.2,3.2,0,0,0,3.16-3.22V3.22A3,3,0,0,0,67.8,1a2.85,2.85,0,0,0-2.21-1Zm0,6.45Z"/><path class="cls-2" d="M63.43,43.51c-2.74.21-5.59.16-8.28.21s-5.48,0-8.28-.21h0a2.8,2.8,0,0,1,0,1.61h0c1,0,2.06-.11,3.06-.16,1.37-.05,2.69-.05,4.06-.05v7c-3.9-.38-8.49-2-10.33-5.37A5,5,0,0,1,43.5,42a8.82,8.82,0,0,1,4-3.87,18.16,18.16,0,0,1,6.75-1.93l2-1.83v-.05c-4.8,0-10.28,1.45-13.34,5A6.94,6.94,0,0,0,41.34,46a9.85,9.85,0,0,0,4.59,5.26A20,20,0,0,0,54,53.71v8.86a3.29,3.29,0,0,1,2.27,0V44.9c1.37,0,2.69,0,4.06.05,1,.05,2.06.16,3.11.16h0a2.8,2.8,0,0,1,0-1.61Z"/></g></g></g></svg>