<?xml version="1.0" encoding="utf-8"?>
<!-- Generator: Adobe Illustrator 21.0.0, SVG Export Plug-In . SVG Version: 6.00 Build 0)  -->
<svg version="1.1" id="Layer_1" xmlns="http://www.w3.org/2000/svg" xmlns:xlink="http://www.w3.org/1999/xlink" x="0px" y="0px"
	 viewBox="0 0 893 688.4" style="enable-background:new 0 0 893 688.4;" xml:space="preserve">
<style type="text/css">
	.st0{fill:#333333;}
	.st1{fill:#BDCCD4;}
	.st2{fill:none;}
	.st3{font-family:'Optima-Bold';}
	.st4{font-size:45.4092px;}
	.st5{letter-spacing:53.2;}
	.st6{font-family:'Wingdings-Regular';}
	.st7{font-size:43.5171px;}
	.st8{letter-spacing:3;}
	.st9{letter-spacing:4.7;}
	.st10{letter-spacing:2.7;}
	.st11{letter-spacing:22.2;}
	.st12{fill:#373737;}
	.st13{font-size:71px;}
</style>
<g id="logo_case">
	<g>
		<path class="st0" d="M347.6,150.6L347.6,150.6c-0.1-0.1-0.1-0.1-0.1-0.1l0.2-120.9c0-0.1,0.1-0.1,0.1-0.1h197.5h0.1v0.1
			l-0.2,120.9c0,0.1-0.1,0.1-0.1,0.1H347.6z"/>
		<path d="M545.4,29.6l-0.2,120.9H347.7l0.2-120.9L545.4,29.6 M545.4,29.4H347.9c-0.1,0-0.2,0.1-0.2,0.2l-0.2,120.9
			c0,0.1,0,0.1,0.1,0.2s0.1,0.1,0.2,0.1h197.5c0.1,0,0.2-0.1,0.2-0.2l0.2-120.9c0-0.1,0-0.1-0.1-0.2
			C545.5,29.4,545.4,29.4,545.4,29.4L545.4,29.4z M545.4,29.9L545.4,29.9L545.4,29.9L545.4,29.9z"/>
	</g>
	<g>
		<path class="st0" d="M471.9,6v23.6h-50.8V6H471.9 M471.9,0h-50.8c-3.3,0-6,2.7-6,6v23.6c0,1.6,0.6,3.1,1.8,4.2
			c1.1,1.1,2.7,1.8,4.2,1.8h50.8c3.3,0,6-2.7,6-6V6c0-1.6-0.6-3.1-1.8-4.2C475.1,0.6,473.5,0,471.9,0L471.9,0z M471.9,12L471.9,12
			L471.9,12L471.9,12z"/>
	</g>
	<g>
		<path class="st1" d="M467.8,81c-5.2,0.4-10.6,0.3-15.7,0.4c-5.3,0-10.4,0-15.7-0.4l0,0c0.3,1,0.3,2,0,3l0,0c1.9,0,3.9-0.2,5.8-0.3
			c2.6-0.1,5.1-0.1,7.7-0.1v13c-7.4-0.7-16.1-3.7-19.6-10c-1.5-2.7-1.6-5.7-0.3-8.5c1.5-3.2,4.4-5.5,7.6-7.2c3.9-2,8.3-3.2,12.8-3.6
			l3.8-3.4v-0.1c-9.1,0-19.5,2.7-25.3,9.4c-3.1,3.5-4.4,8.1-3,12.4c1.3,4.2,4.8,7.5,8.7,9.8c4.6,2.6,9.9,4.1,15.3,4.6v16.5
			c1.4-0.5,3-0.5,4.3,0V83.6c2.6,0,5.1,0,7.7,0.1c1.9,0.1,3.9,0.3,5.9,0.3l0,0C467.5,83,467.5,82,467.8,81L467.8,81z"/>
	</g>
</g>
<g id="Layer_3">
	<rect x="42.3" y="393.2" class="st2" width="822.5" height="295.2"/>
	<text transform="matrix(0.6772 0 0 1 42.2793 436.8232)" class="st3 st4 st5"> </text>
	<text transform="matrix(0.6772 0 0 1 88.4033 436.8232)" class="st6 st7 st8">z </text>
	<text transform="matrix(0.6772 0 0 1 148.8447 436.8232)" class="st3 st7 st8">lorem ipsu</text>
	<text transform="matrix(1.5 0 0 1 335.4341 436.3633)" class="st3 st7 st9">-</text>
	<text transform="matrix(0.6772 0 0 1 364.416 436.8232)" class="st3 st7 st8"> lorem ipsum</text>
	<text transform="matrix(0.6772 0 0 1 42.2793 520.0742)" class="st3 st7 st5"> </text>
	<text transform="matrix(0.6772 0 0 1 88.4033 520.0742)" class="st6 st7 st8">z </text>
	<text transform="matrix(0.6772 0 0 1 148.8447 520.0742)" class="st3 st7 st8">lorem ips </text>
	<text transform="matrix(1.5 0 0 1 289.6128 520.0742)" class="st3 st7 st10">-</text>
	<text transform="matrix(0.6772 0 0 1 316.5713 520.0742)" class="st3 st7 st8"> dolor sit amet, consectetuer lorem</text>
	<text transform="matrix(0.6772 0 0 1 42.2793 603.3242)" class="st6 st7 st11"> </text>
	<text transform="matrix(0.6772 0 0 1 88.4033 603.3242)" class="st6 st7 st8">z </text>
	<text transform="matrix(0.6772 0 0 1 148.8447 603.3242)" class="st3 st7 st8">lorem ips </text>
	<text transform="matrix(1.5 0 0 1 296.8613 603.3242)" class="st3 st7 st10">-</text>
	<text transform="matrix(0.6772 0 0 1 323.8193 603.3242)" class="st3 st7 st8"> Ilorem ipsum dolo</text>
	<g>
		<line class="st2" x1="301.1" y1="196.4" x2="591.9" y2="196.4"/>
		<g>
			<g>
				<g>
					<polygon class="st12" points="301.1,196.4 353.3,199.3 353.3,193.5 					"/>
				</g>
				<g>
					<rect x="353.3" y="193.5" class="st12" width="52.2" height="5.8"/>
				</g>
				<g>
					<rect x="405.5" y="193.5" class="st12" width="52.2" height="5.8"/>
				</g>
				<g>
					<rect x="457.8" y="193.5" class="st12" width="52.2" height="5.8"/>
				</g>
				<g>
					<rect x="510" y="193.5" class="st12" width="52.2" height="5.8"/>
				</g>
				<g>
					<polygon class="st12" points="591.9,196.4 580,186.8 580,186.8 580,186.8 568.5,196.4 579.8,206 					"/>
					<polygon class="st12" points="562.2,199.3 568.3,196.4 562.2,193.5 					"/>
				</g>
			</g>
		</g>
	</g>
	<g>
		<line class="st2" x1="591.9" y1="196.4" x2="301.1" y2="196.4"/>
		<g>
			<g>
				<g>
					<polygon class="st12" points="591.9,196.4 539.7,193.5 539.7,199.3 					"/>
				</g>
				<g>
					<rect x="487.5" y="193.5" class="st12" width="52.2" height="5.8"/>
				</g>
				<g>
					<rect x="435.2" y="193.5" class="st12" width="52.2" height="5.8"/>
				</g>
				<g>
					<rect x="383" y="193.5" class="st12" width="52.2" height="5.8"/>
				</g>
				<g>
					<rect x="330.8" y="193.5" class="st12" width="52.2" height="5.8"/>
				</g>
				<g>
					<polygon class="st12" points="301.1,196.4 313,206 313,206 313,206 324.5,196.4 313.2,186.8 					"/>
					<polygon class="st12" points="330.8,193.5 324.7,196.4 330.8,199.3 					"/>
				</g>
			</g>
		</g>
	</g>
</g>
<g id="title">
	<rect x="-32.5" y="253.8" class="st2" width="958" height="96.8"/>
	<text transform="matrix(0.6772 0 0 1 8.6816 316.6865)" class="st3 st13 st8">A brief outline of my career history </text>
</g>
</svg>
