<?xml version="1.0" encoding="utf-8"?>
<!-- Generator: Adobe Illustrator 21.0.0, SVG Export Plug-In . SVG Version: 6.00 Build 0)  -->
<svg version="1.1" id="Layer_1" xmlns="http://www.w3.org/2000/svg" xmlns:xlink="http://www.w3.org/1999/xlink" x="0px" y="0px"
	 viewBox="0 0 617.02 368.02" style="enable-background:new 0 0 617.02 368.02;" xml:space="preserve">
<style type="text/css">
	.st0{fill:#E81818;}
</style>
<g>
	<g>
		<path class="st0" d="M425.53,138.65c5.95-0.69,11.67-2.3,16.83-4.87c0.67-0.26,1.27-0.67,1.9-1.01l1.87-1.06
			c0.64-0.32,1.19-0.78,1.78-1.18l1.74-1.22c1.16-0.81,2.2-1.78,3.29-2.65c1.06-0.92,2-1.97,3-2.93c0.94-1.03,1.77-2.15,2.62-3.24
			c0.78-1.14,1.47-2.35,2.2-3.49c0.67-1.19,1.27-2.41,2.01-3.54c0.61-1.2,1.26-2.38,1.99-3.54c0.6-1.21,1.23-2.43,1.91-3.64
			c0.54-1.26,1.15-2.53,1.79-3.82c0.51-1.32,1.08-2.65,1.71-4.03c0.52-1.39,1.02-2.81,1.75-4.3h0.85c0.56,1.52,0.92,3.09,1.27,4.7
			c0.19,1.59,0.27,3.22,0.31,4.87c-0.09,1.62-0.29,3.25-0.52,4.89c-0.36,1.59-0.81,3.18-1.28,4.77c-0.63,1.52-1.29,3.04-2.07,4.5
			c-0.88,1.39-1.83,2.75-2.85,4.04c-1.14,1.2-2.22,2.43-3.39,3.57l-1.82,1.63c-0.61,0.54-1.16,1.13-1.81,1.61
			c-1.29,0.97-2.52,2.02-3.85,2.91c-1.37,0.84-2.68,1.76-4.09,2.5l-2.15,1.05c-0.72,0.33-1.41,0.73-2.16,0.98l-2.22,0.84
			c-0.74,0.26-1.46,0.59-2.23,0.77c-6.03,1.8-12.31,2.41-18.37,1.76V138.65z"/>
		<path class="st0" d="M379.15,94.13c0.68,5.95,2.42,11.63,5.21,16.65l2.24,3.65c0.87,1.13,1.7,2.28,2.58,3.38
			c0.96,1.04,1.86,2.12,2.84,3.12c1.05,0.94,2.03,1.93,3.11,2.81c1.14,0.82,2.2,1.71,3.4,2.42l1.81,1.02
			c0.61,0.32,1.17,0.72,1.82,0.97l1.85,0.89c0.61,0.3,1.18,0.67,1.82,0.92c0.62,0.28,1.23,0.58,1.84,0.89
			c0.61,0.3,1.19,0.69,1.82,0.94l1.87,0.88c0.62,0.3,1.23,0.67,1.88,0.9c1.29,0.51,2.57,1.14,3.9,1.69
			c1.34,0.49,2.69,1.07,4.08,1.65c1.4,0.51,2.84,1.01,4.32,1.73v0.85c-1.51,0.57-3.08,0.93-4.68,1.29c-1.59,0.25-3.2,0.32-4.83,0.4
			c-0.82,0.05-1.61-0.07-2.43-0.12c-0.81-0.06-1.62-0.16-2.44-0.25c-1.62-0.22-3.18-0.69-4.78-1.09c-0.8-0.19-1.55-0.54-2.31-0.84
			c-0.76-0.32-1.51-0.65-2.25-1c-1.48-0.71-2.81-1.71-4.17-2.61c-1.32-0.97-2.51-2.12-3.75-3.16c-0.64-0.5-1.15-1.15-1.74-1.71
			l-1.71-1.71c-1.11-1.17-2.1-2.45-3.14-3.67c-0.97-1.28-1.84-2.63-2.75-3.94c-0.8-1.39-1.53-2.81-2.28-4.21
			c-0.63-1.46-1.22-2.93-1.82-4.39c-2.07-5.97-2.84-12.3-2.17-18.36H379.15z"/>
		<path class="st0" d="M472.33,4.68c-11.96,0.69-23.68,3.4-34.44,8.16c-5.38,2.35-10.52,5.21-15.33,8.51
			c-4.83,3.27-9.32,6.98-13.41,11.08c-4.09,4.1-7.65,8.68-10.73,13.51c-3.1,4.82-5.9,9.78-8.45,14.9
			c-2.53,5.13-4.69,10.47-6.46,16.02c-1.79,5.55-3.15,11.3-4.38,17.27h-0.85c-2.37-12.1-0.69-25.01,3.9-36.73
			c2.31-5.87,5.5-11.39,9.37-16.35c3.88-4.95,8.28-9.45,12.93-13.58c4.67-4.13,9.72-7.78,15.05-10.91c5.36-3.1,10.99-5.67,16.8-7.68
			c11.62-3.99,23.92-5.7,35.98-5.04V4.68z"/>
		<path class="st0" d="M612.33,139.07l-0.42-6.72l-0.76-6.68l-1.07-6.62c-0.44-2.19-0.94-4.37-1.41-6.55
			c-2.1-8.67-5.1-17.09-8.93-25.09c-3.8-8.01-8.41-15.61-13.72-22.65c-5.27-7.07-11.25-13.6-17.78-19.48
			c-6.53-5.89-13.71-11-21.26-15.41c-7.54-4.43-15.34-8.34-23.39-11.74c-8.05-3.42-16.39-6.2-24.94-8.43
			c-8.57-2.2-17.34-3.78-26.32-5.01V3.83c9.04-1.21,18.28-1.13,27.42-0.02c9.15,1.08,18.21,3.25,26.94,6.38
			c8.73,3.14,17.09,7.37,24.79,12.54c7.7,5.19,14.84,11.13,21.43,17.59c6.59,6.46,12.54,13.55,17.72,21.16
			c5.15,7.62,9.52,15.75,13,24.22c6.88,16.97,10.22,35.29,9.54,53.37H612.33z"/>
		<path class="st0" d="M378.72,363.33l11.23-0.51c3.73-0.28,7.46-0.68,11.18-1.02c1.87-0.13,3.71-0.48,5.56-0.71l5.55-0.78
			c1.86-0.22,3.69-0.61,5.52-0.95l5.5-1.05c14.63-3,28.95-7.37,42.71-13.03c27.57-11.2,52.92-27.64,74.18-48.23
			c0.66-0.64,1.36-1.25,2-1.92l1.92-2l3.84-4c1.31-1.31,2.5-2.72,3.72-4.11l3.64-4.17c1.25-1.36,2.34-2.86,3.49-4.3l3.42-4.35
			c1.17-1.42,2.17-2.98,3.26-4.47l3.2-4.51c8.33-12.16,15.63-24.97,21.8-38.34l4.41-10.13l3.9-10.35c1.14-3.5,2.34-7,3.45-10.53
			l2.96-10.7c3.63-14.37,5.92-29.13,7.15-44.11h0.85c1.21,15.05,0.41,30.33-2.14,45.34c-0.67,3.75-1.46,7.48-2.24,11.21
			c-0.92,3.7-1.92,7.38-2.88,11.08c-1.12,3.65-2.37,7.26-3.55,10.9l-4.13,10.71c-5.96,14.11-13.63,27.5-22.72,39.8
			c-9.13,12.27-19.43,23.64-30.69,33.9c-22.49,20.57-48.92,36.64-77.3,47.23c-28.42,10.49-58.72,15.58-88.81,14.93V363.33z"/>
		<path class="st0" d="M4.68,4.26c0.35,24,3.12,47.92,8.3,71.29c5.19,23.36,12.82,46.16,22.7,67.9
			c19.67,43.54,48.36,82.8,83.34,115.07c8.77,8.05,17.89,15.7,27.38,22.86l7.18,5.29c1.2,0.88,2.39,1.77,3.6,2.63l3.71,2.47
			l7.42,4.93c1.24,0.81,2.46,1.66,3.72,2.45l3.82,2.29l7.62,4.62c1.28,0.76,2.52,1.57,3.82,2.28l3.91,2.13l7.82,4.25
			c1.31,0.69,2.59,1.45,3.93,2.09l4,1.96l7.98,3.94c1.34,0.64,2.65,1.35,4.01,1.94l4.08,1.79l8.14,3.61
			c1.36,0.59,2.7,1.24,4.09,1.77l4.15,1.61l8.29,3.27c1.39,0.53,2.76,1.12,4.16,1.61l4.22,1.43l8.44,2.87
			c1.41,0.47,2.81,0.97,4.23,1.42l4.28,1.25l8.56,2.52l4.28,1.26l4.34,1.05l8.68,2.11l4.34,1.08c1.45,0.35,2.92,0.59,4.38,0.9
			c23.33,4.96,47.11,7.91,71.11,9.17v0.85c-24.05,1.18-48.31-0.27-72.21-4.13c-11.96-1.91-23.81-4.48-35.54-7.58l-4.41-1.12
			c-1.46-0.42-2.9-0.89-4.35-1.33l-8.69-2.7l-4.35-1.35c-1.44-0.47-2.86-1.02-4.29-1.53l-8.56-3.11l-4.27-1.58
			c-1.42-0.53-2.8-1.17-4.21-1.75l-8.39-3.57l-4.19-1.8c-1.4-0.6-2.74-1.32-4.11-1.97l-8.18-4.01l-4.09-2.02
			c-1.36-0.68-2.66-1.47-3.99-2.19l-7.95-4.46l-3.97-2.23c-1.32-0.75-2.59-1.59-3.88-2.38l-7.73-4.83
			c-20.38-13.21-39.51-28.31-57.01-45.08c-35.04-33.5-63.45-73.89-82.57-118.31C12.77,100.71,3.14,52.38,3.83,4.26H4.68z"/>
	</g>
</g>
</svg>
