<?xml version="1.0" encoding="utf-8"?>
<!-- Generator: Adobe Illustrator 21.0.0, SVG Export Plug-In . SVG Version: 6.00 Build 0)  -->
<svg version="1.1" xmlns="http://www.w3.org/2000/svg" xmlns:xlink="http://www.w3.org/1999/xlink" x="0px" y="0px"
	 viewBox="0 0 464.6 636.9" enable-background="new 0 0 464.6 636.9" xml:space="preserve">
<g id="Layer_3" display="none">
	<g id="Layer_5">
		<rect x="-73.1" y="-40.5" display="inline" fill="none" stroke="#1B1464" stroke-miterlimit="10" width="721" height="721"/>
		<path fill="#0071BC" stroke="#000000" stroke-miterlimit="10" d="M224.9,91.2c-49.1,33.7-76,77.7-76,123.8s27,90.1,76,123.8
			c51.4,35.3,120.1,54.7,193.5,54.7v-357C345,36.5,276.3,55.9,224.9,91.2z"/>
		<path fill="#0071BC" stroke="#000000" stroke-miterlimit="10" d="M224.3,90.3c-49.3,33.8-76.5,78.1-76.5,124.6
			c0,46.6,27.2,90.8,76.5,124.6c51.5,35.3,120.2,54.8,193.5,54.9v19c-79.8-0.1-152-22.3-204.3-58.2c-52.4-36-84.7-85.6-84.7-140.3
			c0-54.7,32.3-104.4,84.7-140.3c52.3-35.9,124.5-58.1,204.3-58.2v19C344.5,35.6,275.8,55,224.3,90.3z"/>
		<g display="inline">
			<path d="M226.3,339.1c-49.9-33.8-77.4-77.9-77.4-124.4s27.5-90.6,77.4-124.4c42.4-28.7,96.4-47,155.1-52.8l42-41.6v-1h-0.5
				c-82.7,0-160.8,22-219.8,62c-29.4,19.9-52.6,43.3-69,69.5c-17.4,27.8-26.2,57.6-26.2,88.3c0,30.8,8.8,60.5,26.2,88.3
				c16.4,26.2,39.6,49.6,69,69.5c48,32.5,108.5,53.1,173.9,59.7v-40.8C320,385.1,267.6,367.1,226.3,339.1z"/>
			<g>
				<g>
					<g>
						<path d="M401.4,234v-26.5c2.7,0,5.5,0,8.2-0.1c12.8,0.3,25.8,0.5,39.1,0.5c45,0,87.2-1.8,124-4.9v0.1
							c-1.4,5.8-2.1,11.8-2.1,18.1c0,6.3,0.7,12.4,2.1,18.1v0.2h-5.7c-37.2-3.2-80-5.1-125.6-5.1c-5.5,0-10.8,0-16.2,0.1V234H401.4z
							"/>
					</g>
					<g>
						<path fill="none" stroke="#000000" stroke-width="0.75" stroke-miterlimit="10" d="M401.4,234v-26.5c2.7,0,5.5,0,8.2-0.1
							c12.8,0.3,25.8,0.5,39.1,0.5c45,0,87.2-1.8,124-4.9v0.1c-1.4,5.8-2.1,11.8-2.1,18.1c0,6.3,0.7,12.4,2.1,18.1v0.2h-5.7
							c-37.2-3.2-80-5.1-125.6-5.1c-5.5,0-10.8,0-16.2,0.1V234H401.4z"/>
					</g>
				</g>
				<g>
					<g>
						<path d="M400.6,234v-26.5c-2.7,0-5.5,0-8.2-0.1c-12.8,0.3-25.8,0.5-39.1,0.5c-45,0-87.2-1.8-124-4.9v0.1
							c1.4,5.8,2.1,11.8,2.1,18.1c0,6.3-0.7,12.4-2.1,18.1v0.2h5.7c37.2-3.2,80-5.1,125.6-5.1c5.5,0,10.8,0,16.2,0.1V234H400.6z"/>
					</g>
					<g>
						<path fill="none" stroke="#000000" stroke-width="0.75" stroke-miterlimit="10" d="M400.6,234v-26.5c-2.7,0-5.5,0-8.2-0.1
							c-12.8,0.3-25.8,0.5-39.1,0.5c-45,0-87.2-1.8-124-4.9v0.1c1.4,5.8,2.1,11.8,2.1,18.1c0,6.3-0.7,12.4-2.1,18.1v0.2h5.7
							c37.2-3.2,80-5.1,125.6-5.1c5.5,0,10.8,0,16.2,0.1V234H400.6z"/>
					</g>
				</g>
			</g>
			<g>
				<g>
					<path d="M377.4,234.5h46.4v396.7c-7.4-2.8-15.2-4.2-23.2-4.2c-8,0-15.8,1.4-23.2,4.2V234.5z"/>
				</g>
				<g>
					<path d="M423.4,235v395.4c-7.2-2.6-14.9-3.9-22.7-3.9c-7.9,0-15.5,1.3-22.7,3.9V235H423.4 M424.4,234h-47.4v397.9
						c7.3-2.8,15.3-4.4,23.7-4.4c8.4,0,16.5,1.6,23.7,4.4V234L424.4,234z"/>
				</g>
			</g>
		</g>
	</g>
</g>
<g id="Layer_2">
</g>
<g id="gt_logo" display="none">
	<rect x="-192.2" y="-106" display="inline" fill="#333333" width="849" height="849"/>
	<g display="inline">
		<path fill="#FFFFC2" d="M464.6,208c-56.5,4.8-115.3,4.2-171.9,4.4c-58.1,0.2-113.5,0.5-171.4-4.4v0.1c2.8,11.9,2.8,24.4,0,36.2
			v0.2c21.2,0,42.6-2.8,63.8-3.7c27.9-1.2,55.8-1.6,83.7-1.3v156.9C188.6,387.5,93,352,54.4,275.1c-16.1-32-17.8-69-3.9-102.2
			c15.9-38.1,48.4-67,83.4-87.3c42.4-24.7,90.9-38.2,139.5-43l42-41.6V0C215.6-0.2,102.8,32.1,38.8,113.4
			C5.3,155.9-9.1,210.9,6,263.6c14.5,50.4,52.3,90.5,95.6,118.3c50,32,108.5,49.4,167.3,55.3v199.7c15.1-5.8,32.3-5.8,47.4,0V239.5
			c28.1-0.3,56.2,0.1,84.3,1.3c21.3,0.9,42.7,3.7,64,3.7v-0.2C461.8,232.4,461.8,219.9,464.6,208L464.6,208z"/>
	</g>
</g>
<g id="gt_logo_copy">
	<rect x="-174.6" y="-122" display="none" fill="#333333" width="849" height="849"/>
	<g>
		<path fill="#FFFFC2" d="M464.6,208c-56.5,4.8-115.3,4.2-171.9,4.4c-58.1,0.2-113.5,0.5-171.4-4.4v0.1c2.8,11.9,2.8,24.4,0,36.2
			v0.2c21.2,0,42.6-2.8,63.8-3.7c27.9-1.2,55.8-1.6,83.7-1.3v156.9C188.6,387.5,93,352,54.4,275.1c-16.1-32-17.8-69-3.9-102.2
			c15.9-38.1,48.4-67,83.4-87.3c42.4-24.7,90.9-38.2,139.5-43l42-41.6V0C215.6-0.2,102.8,32.1,38.8,113.4
			C5.3,155.9-9.1,210.9,6,263.6c14.5,50.4,52.3,90.5,95.6,118.3c50,32,108.5,49.4,167.3,55.3v199.7c15.1-5.8,32.3-5.8,47.4,0V239.5
			c28.1-0.3,56.2,0.1,84.3,1.3c21.3,0.9,42.7,3.7,64,3.7v-0.2C461.8,232.4,461.8,219.9,464.6,208L464.6,208z"/>
	</g>
</g>
</svg>
