<?xml version="1.0" encoding="utf-8"?>
<!-- Generator: Adobe Illustrator 21.0.0, SVG Export Plug-In . SVG Version: 6.00 Build 0)  -->
<svg version="1.1" id="socialicious" xmlns="http://www.w3.org/2000/svg" xmlns:xlink="http://www.w3.org/1999/xlink" x="0px"
	 y="0px" viewBox="0 0 100 100" style="enable-background:new 0 0 100 100;" xml:space="preserve">
<style type="text/css">
	.st0{fill:#CCCCFF;}
	.st1{fill:#333333;}
	.st2{fill:url(#SVGID_1_);}
</style>
<g id="linkedin_1_">
	<g id="XMLID_1_">
		<g>
			<path class="st0" d="M35,27.4c0,3.9-2.9,6.9-7.5,6.9c-4.5,0-7.4-3.1-7.4-6.9c0-3.9,3-6.9,7.5-6.9S34.9,23.5,35,27.4z"/>
			<rect x="20.9" y="39.7" class="st0" width="13.3" height="40"/>
			<path class="st0" d="M82.1,56.9v22.8H68.8V58.4c0-5.4-1.9-9-6.7-9c-3.7,0-5.9,2.5-6.8,4.9c-0.4,0.9-0.4,2-0.4,3.2v22.3H41.5
				c0,0,0.2-36.2,0-40h13.3v5.7c0,0-0.1,0,0,0.1v-0.1c1.8-2.7,4.9-6.6,12-6.6C75.5,38.9,82.1,44.6,82.1,56.9z"/>
			<path class="st1" d="M100,10.8v78.4c0,6-4.8,10.8-10.8,10.8H10.8C4.8,100,0,95.2,0,89.2V10.8C0,4.8,4.8,0,10.8,0h78.4
				C95.2,0,100,4.8,100,10.8z M82.1,79.7V56.9c0-12.3-6.6-18-15.3-18c-7.1,0-10.2,3.9-12,6.6v-5.7H41.5c0.2,3.8,0,40,0,40h13.4V57.5
				c0-1.2,0-2.3,0.4-3.2c0.9-2.4,3.1-4.9,6.8-4.9c4.8,0,6.7,3.6,6.7,9v21.3H82.1z M34.2,79.7v-40H20.9v40H34.2z M27.5,34.3
				c4.6,0,7.5-3,7.5-6.9c-0.1-3.9-2.9-6.9-7.4-6.9s-7.5,3-7.5,6.9C20.1,31.2,23,34.3,27.5,34.3z"/>
			<linearGradient id="SVGID_1_" gradientUnits="userSpaceOnUse" x1="54.7051" y1="45.55" x2="54.791" y2="45.55">
				<stop  offset="0" style="stop-color:#016699"/>
				<stop  offset="1" style="stop-color:#016699"/>
			</linearGradient>
			<path class="st2" d="M54.8,45.5L54.8,45.5C54.7,45.5,54.8,45.5,54.8,45.5z"/>
		</g>
		<g>
		</g>
	</g>
</g>
</svg>
