<?xml version="1.0" encoding="utf-8"?>
<!-- Generator: Adobe Illustrator 21.0.0, SVG Export Plug-In . SVG Version: 6.00 Build 0)  -->
<svg version="1.1" id="Layer_1" xmlns:sketch="http://www.bohemiancoding.com/sketch/ns"
	 xmlns="http://www.w3.org/2000/svg" xmlns:xlink="http://www.w3.org/1999/xlink" x="0px" y="0px" viewBox="0 0 60 60"
	 style="enable-background:new 0 0 60 60;" xml:space="preserve">
<style type="text/css">
	.st0{fill:#333333;}
	.st1{fill:#CCCCFF;}
	.st2{fill:none;stroke:#000000;stroke-width:0.25;stroke-miterlimit:10;}
</style>
<title></title>
<desc></desc>
<g id="social" transform="translate(-873.000000, -638.000000)">
	<g id="slices" transform="translate(173.000000, 138.000000)">
	</g>
	<g id="XMLID_1_">
		<g id="XMLID_2_">
			<g>
				<path class="st0" d="M933,648V688c0,5.5-4.5,10-10,10h-40c-5.5,0-10-4.5-10-10v-40c0-5.5,4.5-10,10-10H923
					C928.5,638,933,642.5,933,648z M921.5,671.7v-6.3v-7.8l-5.9,5.1c0,0,0,0,0,0l-3.6,3.1l-3.1,2.7l3.1,2.7l3.6,3.1c0,0,0,0,0,0
					l5.9,5.1V671.7z M913.1,662.7l7.2-6.3h-9.6h-15.4h-9.6l7.2,6.3l7.7,6.7l2.3,2l2.3-2L913.1,662.7z M910.6,680.7h9.7l-7.3-6.3
					c0,0,0,0,0,0l-3.1-2.6l0,0l-2.3-2l-2.3,1.9c0,0,0,0,0,0c-0.6,0.5-1.5,0.8-2.3,0.8c-0.8,0-1.6-0.3-2.2-0.8c0,0,0,0,0,0l-0.1,0
					c0,0-0.1-0.1-0.1-0.1l-2.2-1.8l-2.3,2l-3.1,2.6l0,0l-7.3,6.3h9.6H910.6z M894.1,671.3l3.1-2.7l-3.1-2.7l-3.6-3.1c0,0,0,0,0,0
					l-5.9-5.1v7.8v6.3v7.8l5.9-5.1c0,0,0,0,0,0L894.1,671.3z"/>
				<path class="st1" d="M921.5,671.7v7.8l-5.9-5.1C917.9,676.4,921.5,674.8,921.5,671.7z"/>
				<path class="st1" d="M921.5,665.4v6.3c0,3.1-3.6,4.7-5.9,2.7c0,0,0,0,0,0l-3.6-3.1c-1.7-1.4-1.7-4,0-5.4l3.6-3.1c0,0,0,0,0,0
					C917.9,660.7,921.5,662.4,921.5,665.4z"/>
				<path class="st1" d="M921.5,657.6v7.8c0-3-3.6-4.7-5.9-2.7L921.5,657.6z"/>
				<path class="st1" d="M920.3,656.5l-7.2,6.3c2.5-2.2,1-6.3-2.3-6.3H920.3z"/>
				<path class="st1" d="M920.3,680.7h-9.7c3.3,0,4.8-4.1,2.3-6.3L920.3,680.7z"/>
				<path class="st1" d="M910.7,656.5c3.3,0,4.8,4.1,2.3,6.3l-7.7,6.7c-1.3,1.2-3.3,1.2-4.7,0l-7.7-6.7c-2.5-2.2-1-6.3,2.3-6.3
					H910.7z"/>
				<path class="st1" d="M913,674.4c2.5,2.2,1,6.3-2.3,6.3h-15.3c-3.3,0-4.9-4.1-2.4-6.3l0,0l3.1-2.6c1.3-1.1,3.2-1.2,4.5-0.1
					c0,0,0.1,0,0.1,0.1l0.1,0c0,0,0,0,0,0l2.2,1.8l2.2-1.9c0,0,0,0,0,0c1.3-1.1,3.3-1.1,4.6,0l0,0L913,674.4
					C913,674.4,913,674.4,913,674.4z"/>
				<path class="st1" d="M908.8,668.6l3.1-2.7c-1.7,1.4-1.7,4,0,5.4L908.8,668.6z"/>
				<path class="st1" d="M907.6,669.8l2.3,2c-1.3-1.1-3.3-1.1-4.6,0L907.6,669.8z"/>
				<path class="st1" d="M905.3,669.4l-2.3,2l-2.3-2C902,670.6,904,670.6,905.3,669.4z"/>
				<path d="M905.2,671.8l-2.2,1.9l-2.2-1.8c0.6,0.5,1.4,0.8,2.2,0.8C903.8,672.6,904.6,672.3,905.2,671.8z"/>
				<path class="st1" d="M898.3,669.8l2.2,1.8c-1.4-1-3.2-1-4.5,0.1L898.3,669.8z"/>
				<path class="st1" d="M897.2,668.6l-3.1,2.7c1.7-1.4,1.7-4,0-5.4L897.2,668.6z"/>
				<path class="st1" d="M895.3,680.7h-9.6l7.3-6.3C890.5,676.6,892,680.7,895.3,680.7z"/>
				<path class="st1" d="M885.7,656.5h9.6c-3.3,0-4.8,4.1-2.3,6.3L885.7,656.5z"/>
				<path class="st1" d="M894.1,665.9c1.7,1.4,1.7,4,0,5.4l-3.6,3.1c0,0,0,0,0,0c-2.3,2-5.9,0.3-5.9-2.7v-6.3c0-3,3.6-4.7,5.9-2.7
					c0,0,0,0,0,0L894.1,665.9z"/>
				<path class="st1" d="M884.5,657.6l5.9,5.1c-2.3-2-5.9-0.3-5.9,2.7V657.6z"/>
				<path class="st1" d="M890.4,674.5l-5.9,5.1v-7.8C884.5,674.8,888.1,676.4,890.4,674.5z"/>
			</g>
			<g>
				<path class="st2" d="M933,648V688c0,5.5-4.5,10-10,10h-40c-5.5,0-10-4.5-10-10v-40c0-5.5,4.5-10,10-10H923
					C928.5,638,933,642.5,933,648z"/>
				<path class="st2" d="M905.2,671.8c-0.6,0.5-1.5,0.8-2.3,0.8c-0.8,0-1.6-0.3-2.2-0.8"/>
			</g>
		</g>
	</g>
</g>
</svg>
