<svg xmlns="http://www.w3.org/2000/svg" viewBox="0 0 186.29 101.29"><defs><style>.cls-1{opacity:0.85;}.cls-2,.cls-4{fill:#24879d;}.cls-3{fill:#fff;}.cls-3,.cls-4{opacity:0.3;}</style></defs><title>particles for fibanocci_1</title><g id="Layer_2" data-name="Layer 2"><g id="page2"><g id="particles_or_snow" data-name="particles or snow"><g class="cls-1"><path class="cls-2" d="M185.11,24.81c.12-.24-.12-.36-.24-.59l.83-.6c-.35-.24-.24,1.07.6,1.43C186.06,24.57,185.46,24.93,185.11,24.81Z"/><path class="cls-2" d="M173.95,100.54h-.24v-.83A.43.43,0,0,1,173.95,100.54Z"/><path class="cls-2" d="M172.29,99.95l.24-.24-.47-.6-1.19.83.24.35-.24-.35c-.47.23-.12.83-.24,1.19.71.48,1.54-.24,2.25-.83l.24.24c-1.19,1-2.61.59-4.28.36a1.74,1.74,0,0,1-.6-1.43c1.55-1.31,3.33-.71,4.87,0Z"/><polygon class="cls-3" points="170.62 98.88 170.86 99.11 170.27 99.71 170.62 98.88"/><path class="cls-2" d="M149.5,14.84c-1.54-.47-1.43-2-.83-3.09.95-.12,1.54-1.07,2.49-1.19,0,.24-.12,2,1.19,1.42-1.07-.59.59-1.31,1.42-1.42l-.83.59c.6.83,1.42.24,2.25.83l-.83.59,1.07.83C153.53,14,151.87,15.31,149.5,14.84Z"/><path class="cls-2" d="M151.16,76.32c-2.14.23-3.92,1.42-5.34-.83-.24-1.31,1.31-2.14,2.25-2.5h2.85l-.24.24,1.07,1.18-.24.24.83.59C151.51,75.26,150.56,76,151.16,76.32Z"/><path class="cls-3" d="M148.31,75.85c.35.47,1.06.12,1.42.24a1.94,1.94,0,0,1-1.06.59c-.95-.47-.24-1.66-.35-2.26.71-.71,2.13.12,2.61-.36C149.14,74.54,150.56,76,148.31,75.85Z"/><path class="cls-4" d="M148.31,74.9c.23-.12.47-.23.35-.48v-.36h.6v.36h-.36l.6.83Z"/><path class="cls-2" d="M141.19,14.24c-.47-.23-.12-.95-.24-1.42.83-1.07,2.14-.83,3.44-.83-.71.47-1.19-.12-1.78.83l.6,1.19c.36-.48,1.07-.83,1.43-.36C143.68,14.24,142.37,15,141.19,14.24Z"/><path class="cls-2" d="M139.76,85.46l-.48-.83,1.43-.83c-.24.12-.47.24-.36.48l.36.35,1.07-1.19c.24.59.83.24,1.19.36h-.83v.48l-.35-.24-.6,1.19H144C142.61,85.34,141.19,86.17,139.76,85.46Z"/><path class="cls-2" d="M21.42,16.74c-.59,1.9,1.66.71,2.25,1.42-.59.6-1.78-.71-2.25.6a2.12,2.12,0,0,0,2.61.59h.24c-1.3,1.07-4.39-.12-5.1,2.26.6,0,1.19.95.6,1.42-2,.12-2.73,1.9-4.63,2.26l.83.59c-1.54.48-3.56.12-5.34.24,1.3,2-3,.24-2.61,2-.95-1.31-2.37-2-3.09-1.19C2.9,25.76.29,23.62.29,21c-.83-1.42.36-1.66.59-3.44l.36.36c.12-.59.95-1.19.24-1.78a3,3,0,0,0,2.25-1.66c0-1.19,1.07-2.37,2-2,.35-.23.24-.59.24-.83A1.6,1.6,0,0,0,7.41,11c2.38-.83,5.1-.95,7.48-3.09l-.83.47.48.95,2-2c-.23,1.07-1.78,2-1.06,3.09.83.71,1.66-.12,2.49-.24l-.83.6c.83.95,2.25-.71,3.45.24-1.43,1.66-.24,2.61,1.06,3.44H24.5A3.06,3.06,0,0,0,21.42,16.74Z"/><path class="cls-2" d="M126.11,76.32c.35-.12.35-.47.35-.83-.48-.83-1.31-.6-2-.83l-.36.83c.59.83,1.07-.48,1.43.59-.6,1.3-2,0-3.09,0-.71-1.67,1.31-1.78,2.25-1.67,1.31-.47,1.9.71,2.85,1.07C127.3,75.61,126.83,76.68,126.11,76.32Z"/><path class="cls-2" d="M107,71.81c-1.42-.59-2.73-2.26-2.25-3.09-.24-.71.47-1.07.59-1.42-1.43-.24-3.09-1.54-2-3.21,4.51-2.13,8.54,1.31,10.8,2.61l-.83.83,1.19.59C112.46,70.63,110.09,72,107,71.81Z"/><path class="cls-2" d="M107.6,52.47h.59c-.83.23-1.31,1.07-2,1.66.36.36.6.71,1.19.59l.24-.24c-.24.47-2,0-1.43,1.42l.36.24c-2.61-.36-3.09,2-5.46,1.67-1.9,2.25-4.27-.35-5.94-.24.12-1-.95-1.31-1.42-2V50.69c.95-.48,1.42-1.43,2.25-2.49a7,7,0,0,1-3.44-3.44c-1.06-2.73,1.91-3,2.61-4.87,1.19.71,2.61,0,3.68-.59l.6-.47c-1.07,2.14,2.37,1.42,3.68,1.9h.83c-.47.48-1.42.36-1.42,1.19h2c-.36.12-.83.12-1.19.6l.59.83c-.47-.12-.59.36-.83.59s.36.59.59.83l-.95.59c.71.71,1.54.83,1.18,2l2.85.48-.83.59a1.36,1.36,0,0,0,1.43.6l.24-.24-.59.83,2,.24C108.78,50.8,106.05,51.16,107.6,52.47Z"/><path class="cls-2" d="M105.34,5.1l.59.59c-1.66.95-3.09,3.92-6.29,3.68-1.9.12-3-.83-4.87-1.66-1-3,.35-4.51,2.25-6.53,1.43.59,4-1.07,5.7-.83l.35-.36-.83.83L106.17,2C105.58,2.85,105.81,4.16,105.34,5.1Z"/><rect class="cls-3" x="102.49" y="46.17" width="0.83" height="0.24"/><path class="cls-2" d="M87.06,53.89c0-.24.24-.47.35-.59-.35.47.48,1.54,1.07.83C88.13,54.48,87.06,54.72,87.06,53.89Z"/><path class="cls-2" d="M76.85,52.7l.24.36c.35,0-1.43.59-.83,1.42-3.09,1.9-4.16-3.92-7.12-.59-1.67-1.66-4.28-.83-4.87-3.44-.12-2,1.78-3.08,3.44-3.68l2.61-.59c-.12.47.47.71.83.59h1.19c-.83,1.66,1.66.6,2.25,1.66h-.36c.24,1.78,2.14.83,2.85,2.26L78,51C78.16,51.87,77.21,52.11,76.85,52.7Z"/><path class="cls-2" d="M44.92,36.2c.83.36-1.42.36-.24,1.19-1.31,0-1.07,1.42-2,1.66l.24.24c-2-.83-1.54,3-4.75,1.19-1.42,1.66-2.49-1.43-3.8-.83-1.78-2.14-1.9-3.21-1.07-5.7,1.19-1.9.83-.59,2.5-2.61l.95-.83c.59,1.9,1.54-2,2.5,0,.94-.12,1.54-.83,2.61-.59a.89.89,0,0,0-.35.83c.59.59,1.42.23,2,.35l-.24.83,1.43.59c-.36.12-.36.48-.36.83l.95.24C45.87,35,43.26,34.9,44.92,36.2Z"/><polygon class="cls-3" points="38.98 34.19 41 33.95 39.82 34.19 38.98 34.19"/></g></g></g></g></svg>