<?xml version="1.0" encoding="utf-8"?>
<!-- Generator: Adobe Illustrator 21.0.0, SVG Export Plug-In . SVG Version: 6.00 Build 0)  -->
<svg version="1.1" id="Layer_2" xmlns="http://www.w3.org/2000/svg" xmlns:xlink="http://www.w3.org/1999/xlink" x="0px" y="0px"
	 viewBox="0 0 55.5 55.5" enable-background="new 0 0 55.5 55.5" xml:space="preserve">
<g>
	<g>
		<g>
			<polygon opacity="0.8" fill="#FEF0CD" stroke="#1D1D1B" stroke-width="0.3936" points="27.7,30.7 37.5,37.6 31.6,27.4 27.7,27.4 
							"/>
			<polygon opacity="0.8" fill="#FEF0CD" stroke="#1D1D1B" stroke-width="0.3936" points="23.8,27.5 17.5,37 27.7,30.7 27.7,27.5 
							"/>
			<circle opacity="0.8" fill="#FEF0CD" stroke="#1D1D1B" stroke-width="0.3936" cx="27.8" cy="2.5" r="1.3"/>
			<circle opacity="0.8" fill="#FEF0CD" stroke="#1D1D1B" stroke-width="0.3936" cx="2.6" cy="27.5" r="1.3"/>
			<circle opacity="0.8" fill="#FEF0CD" stroke="#1D1D1B" stroke-width="0.3936" cx="53.3" cy="27.4" r="1.3"/>
			<circle opacity="0.8" fill="#FEF0CD" stroke="#1D1D1B" stroke-width="0.3936" cx="27.7" cy="52.8" r="1.3"/>
			<polygon opacity="0.8" fill="#FEF0CD" stroke="#1D1D1B" stroke-width="0.3936" points="27.7,23.9 37.5,17.1 31.6,27.4 27.7,27.4 
							"/>
			<polygon opacity="0.8" fill="#FEF0CD" stroke="#1D1D1B" stroke-width="0.3936" points="27.6,23.9 17.7,16.8 23.6,27.5 27.6,27.5 
							"/>
			<g opacity="0.8">
				<polygon fill="#8BCEF3" stroke="#1D1D1B" stroke-width="0.3936" points="27.6,34.4 27.6,27.1 27.6,27.1 36.5,48.6 				"/>
				<polygon fill="#8BCEF3" stroke="#1D1D1B" stroke-width="0.3936" points="27.7,34.7 27.7,27.4 27.7,27.4 18.7,48.9 				"/>
				<g>
					<polygon fill="#8BCEF3" stroke="#1D1D1B" stroke-width="0.3936" points="34.7,27.4 27.4,27.4 27.4,27.4 48.9,18.5 					"/>
					<polygon fill="#8BCEF3" stroke="#1D1D1B" stroke-width="0.3936" points="35,27.4 27.7,27.4 27.7,27.4 49.2,36.3 					"/>
				</g>
				<polygon fill="#8BCEF3" stroke="#1D1D1B" stroke-width="0.3936" points="20.6,27.3 27.9,27.3 27.9,27.3 6.4,36.2 				"/>
				<polygon fill="#8BCEF3" stroke="#1D1D1B" stroke-width="0.3936" points="20.3,27.4 27.7,27.4 27.7,27.4 6.1,18.4 				"/>
				<polygon fill="#8BCEF3" stroke="#1D1D1B" stroke-width="0.3936" points="27.7,20 27.7,27.4 27.7,27.4 36.6,5.8 				"/>
				<polygon fill="#8BCEF3" stroke="#1D1D1B" stroke-width="0.3936" points="27.7,19.7 27.7,27.1 27.7,27.1 18.8,5.5 				"/>
			</g>
			<line opacity="0.8" fill="none" stroke="#1D1D1B" stroke-width="0.3936" x1="27.7" y1="0" x2="27.7" y2="55.5"/>
			<line opacity="0.8" fill="none" stroke="#1D1D1B" stroke-width="0.3936" x1="55.5" y1="27.4" x2="0" y2="27.4"/>
		</g>
	</g>
</g>
</svg>
